<svg xmlns="http://www.w3.org/2000/svg" xmlns:xlink="http://www.w3.org/1999/xlink" width="500" zoomAndPan="magnify" viewBox="0 0 375 374.999991" height="500" preserveAspectRatio="xMidYMid meet" version="1.0"><defs><g/><clipPath id="cf20360ffa"><path d="M 190 113.453125 L 339.988281 113.453125 L 339.988281 234.203125 L 190 234.203125 Z M 190 113.453125 " clip-rule="nonzero"/></clipPath><clipPath id="7f4e7e9e8e"><path d="M 35.011719 129.496094 L 217.261719 129.496094 L 217.261719 226.246094 L 35.011719 226.246094 Z M 35.011719 129.496094 " clip-rule="nonzero"/></clipPath></defs><g clip-path="url(#cf20360ffa)"><path fill="#ffffff" d="M 239.34375 234.042969 C 221.597656 234.042969 204.933594 231.957031 190.457031 228.289062 C 200.421875 229.796875 211.078125 230.609375 222.15625 230.609375 C 277.679688 230.609375 322.691406 210.171875 322.691406 184.953125 C 322.691406 167.800781 301.855469 152.859375 271.042969 145.050781 C 311.039062 151.082031 339.882812 168.203125 339.882812 188.394531 C 339.882812 213.601562 294.867188 234.042969 239.34375 234.042969 Z M 241.210938 137.476562 L 241.210938 137.105469 C 263.375 137.105469 264.984375 133.519531 264.984375 113.390625 L 265.355469 113.390625 C 265.355469 133.519531 266.972656 137.105469 289.140625 137.105469 L 289.140625 137.476562 C 266.972656 137.476562 265.355469 141.050781 265.355469 161.183594 L 264.984375 161.183594 C 264.984375 141.050781 263.375 137.476562 241.210938 137.476562 " fill-opacity="1" fill-rule="evenodd"/></g><path stroke-linecap="butt" transform="matrix(0.75, 0, 0, 0.75, 254.174109, 141.690387)" fill="none" stroke-linejoin="miter" d="M 15.15848 84.001365 C 12.825147 84.001365 10.674105 83.402407 8.710563 82.209698 C 6.757438 81.011781 5.189729 79.412823 3.991813 77.412823 C 2.799104 75.391989 2.200146 73.183656 2.200146 70.782614 L 2.200146 38.996154 C 2.200146 36.605528 2.799104 34.438862 3.991813 32.485737 C 5.189729 30.522195 6.788688 28.970111 8.788688 27.829486 C 10.809521 26.688861 13.007438 26.115944 15.398063 26.115944 L 33.668898 26.115944 C 36.88244 26.115944 39.887648 26.714903 42.689732 27.907611 C 45.486607 29.10032 47.944941 30.761778 50.054316 32.886778 C 52.174108 35.00657 53.835566 37.470112 55.028274 40.266987 C 56.220983 43.053446 56.819941 46.053446 56.819941 49.266988 C 56.819941 53.235738 55.939733 56.902405 54.174108 60.272197 C 52.408483 63.641989 49.981399 66.41803 46.887649 68.595114 C 46.663691 68.699281 46.627232 68.891989 46.788691 69.173239 C 46.960566 69.438864 47.153274 69.516989 47.366816 69.407614 C 48.720982 68.813864 50.017857 68.069072 51.267857 67.178447 C 52.528274 66.277405 53.674108 65.225322 54.710566 64.016989 C 56.554316 66.631572 57.32515 69.402406 57.017858 72.334697 C 56.726191 75.266989 55.413691 77.907615 53.080358 80.256573 C 51.882441 81.45449 50.470982 82.376365 48.840774 83.022198 C 47.205357 83.67324 45.549107 84.001365 43.861607 84.001365 C 40.491815 84.001365 37.611607 82.61074 35.22619 79.839906 L 28.215773 71.855531 C 28.095981 74.141989 27.439731 76.188864 26.247023 78.006573 C 25.054314 79.824281 23.502231 81.277406 21.590772 82.365948 C 19.68973 83.45449 17.549105 84.001365 15.15848 84.001365 Z M 29.668898 46.657612 C 29.127231 46.657612 28.642856 46.798237 28.215773 47.074279 L 28.215773 52.610738 C 28.429314 52.714905 28.642856 52.782613 28.856398 52.808655 C 29.080356 52.834696 29.351189 52.850321 29.668898 52.850321 C 30.543898 52.850321 31.25744 52.563863 31.799106 51.990946 C 32.345981 51.423238 32.616815 50.704488 32.616815 49.845113 C 32.616815 48.970113 32.345981 48.220113 31.799106 47.595113 C 31.25744 46.970112 30.543898 46.657612 29.668898 46.657612 Z M 29.668898 46.657612 " stroke="#000000" stroke-width="6.624361" stroke-opacity="1" stroke-miterlimit="4"/><g fill="#ffffff" fill-opacity="1"><g transform="translate(255.885047, 204.690383)"><g><path d="M 9.65625 0 C 7.90625 0 6.296875 -0.445312 4.828125 -1.34375 C 3.359375 -2.238281 2.175781 -3.441406 1.28125 -4.953125 C 0.382812 -6.460938 -0.0625 -8.113281 -0.0625 -9.90625 L -0.0625 -33.75 C -0.0625 -35.539062 0.382812 -37.171875 1.28125 -38.640625 C 2.175781 -40.109375 3.378906 -41.269531 4.890625 -42.125 C 6.398438 -42.976562 8.050781 -43.40625 9.84375 -43.40625 L 23.546875 -43.40625 C 25.941406 -43.40625 28.1875 -42.957031 30.28125 -42.0625 C 32.382812 -41.164062 34.234375 -39.921875 35.828125 -38.328125 C 37.421875 -36.742188 38.664062 -34.898438 39.5625 -32.796875 C 40.457031 -30.703125 40.90625 -28.453125 40.90625 -26.046875 C 40.90625 -23.066406 40.238281 -20.3125 38.90625 -17.78125 C 37.582031 -15.257812 35.757812 -13.1875 33.4375 -11.5625 C 33.28125 -11.476562 33.257812 -11.332031 33.375 -11.125 C 33.5 -10.925781 33.644531 -10.863281 33.8125 -10.9375 C 34.832031 -11.382812 35.8125 -11.945312 36.75 -12.625 C 37.6875 -13.300781 38.539062 -14.085938 39.3125 -14.984375 C 40.695312 -13.023438 41.273438 -10.941406 41.046875 -8.734375 C 40.828125 -6.535156 39.84375 -4.5625 38.09375 -2.8125 C 37.195312 -1.914062 36.132812 -1.222656 34.90625 -0.734375 C 33.6875 -0.242188 32.445312 0 31.1875 0 C 28.65625 0 26.492188 -1.039062 24.703125 -3.125 L 19.4375 -9.109375 C 19.363281 -7.398438 18.875 -5.863281 17.96875 -4.5 C 17.070312 -3.132812 15.910156 -2.039062 14.484375 -1.21875 C 13.054688 -0.40625 11.445312 0 9.65625 0 Z M 20.546875 -28 C 20.140625 -28 19.769531 -27.898438 19.4375 -27.703125 L 19.4375 -23.546875 C 19.601562 -23.460938 19.765625 -23.410156 19.921875 -23.390625 C 20.085938 -23.367188 20.296875 -23.359375 20.546875 -23.359375 C 21.191406 -23.359375 21.71875 -23.570312 22.125 -24 C 22.539062 -24.425781 22.75 -24.96875 22.75 -25.625 C 22.75 -26.269531 22.539062 -26.828125 22.125 -27.296875 C 21.71875 -27.765625 21.191406 -28 20.546875 -28 Z M 20.546875 -28 "/></g></g></g><g clip-path="url(#7f4e7e9e8e)"><path fill="#ffffff" d="M 67.511719 208.230469 L 74.582031 186.628906 L 56.160156 173.300781 L 78.894531 173.355469 L 85.871094 151.71875 L 92.847656 173.355469 L 217.589844 166.4375 L 97.8125 166.523438 L 85.871094 129.496094 L 73.929688 166.523438 L 35.023438 166.4375 L 66.550781 189.238281 L 54.445312 226.210938 L 85.871094 203.277344 L 184.398438 192.453125 L 85.871094 194.828125 Z M 67.511719 208.230469 " fill-opacity="1" fill-rule="nonzero"/></g><path stroke-linecap="butt" transform="matrix(0.75, 0, 0, 0.75, 228.580684, 141.690387)" fill="none" stroke-linejoin="miter" d="M 3.783047 39.235737 C 3.783047 36.793028 4.340338 34.584695 5.454922 32.605528 C 6.569505 30.615945 8.11638 29.03782 10.090339 27.865945 C 12.079922 26.699278 14.350756 26.115944 16.897631 26.115944 L 38.194507 26.115944 C 40.746591 26.115944 42.965341 26.740944 44.866383 27.985736 C 46.777841 29.235736 48.257008 30.855528 49.303883 32.845112 C 50.366383 34.824278 50.897633 36.923237 50.897633 39.152404 C 50.897633 41.438862 50.350758 43.532612 49.262216 45.444071 C 48.1893 47.339904 46.65805 48.860738 44.663258 50.001363 C 42.689299 51.141988 40.314299 51.766988 37.538257 51.871154 C 37.262216 51.871154 37.121591 52.027404 37.121591 52.329488 C 37.121591 52.621155 37.262216 52.82428 37.538257 52.928446 C 39.767424 53.209696 41.939299 53.063863 44.048674 52.490946 C 46.173675 51.918029 48.048675 50.793029 49.684091 49.105529 C 50.491383 50.897196 50.897633 52.803446 50.897633 54.819071 C 50.897633 58.615947 49.741383 61.626363 47.434091 63.85553 C 45.121591 66.084697 42.095549 67.41803 38.355966 67.855531 C 38.074716 67.855531 37.939299 68.022197 37.939299 68.355531 C 37.939299 68.673239 38.074716 68.834697 38.355966 68.834697 C 40.465341 69.058656 42.527841 68.897197 44.548674 68.355531 C 46.5643 67.808656 48.329925 66.63678 49.840341 64.829489 C 50.277841 65.548239 50.590341 66.345114 50.777841 67.220114 C 50.975758 68.084697 51.074717 69.381572 51.074717 71.121156 C 51.074717 72.371156 50.829925 73.740948 50.340341 75.240948 C 49.84555 76.730531 49.069508 78.14199 48.012216 79.480531 C 46.949716 80.808656 45.616383 81.897198 44.007008 82.746157 C 42.418466 83.57949 40.480966 84.001365 38.194507 84.001365 L 16.741381 84.001365 C 14.350756 84.001365 12.163256 83.418032 10.168464 82.246156 C 8.194505 81.07949 6.632005 79.522198 5.49138 77.569073 C 4.350755 75.605531 3.783047 73.459698 3.783047 71.121156 Z M 3.783047 39.235737 " stroke="#000000" stroke-width="6.624361" stroke-opacity="1" stroke-miterlimit="4"/><g fill="#ffffff" fill-opacity="1"><g transform="translate(231.416621, 204.690383)"><g><path d="M 0 -33.5625 C 0 -35.394531 0.414062 -37.054688 1.25 -38.546875 C 2.082031 -40.035156 3.242188 -41.21875 4.734375 -42.09375 C 6.222656 -42.96875 7.925781 -43.40625 9.84375 -43.40625 L 25.796875 -43.40625 C 27.710938 -43.40625 29.382812 -42.9375 30.8125 -42 C 32.238281 -41.0625 33.347656 -39.847656 34.140625 -38.359375 C 34.941406 -36.878906 35.34375 -35.300781 35.34375 -33.625 C 35.34375 -31.914062 34.929688 -30.347656 34.109375 -28.921875 C 33.296875 -27.492188 32.144531 -26.351562 30.65625 -25.5 C 29.175781 -24.644531 27.394531 -24.175781 25.3125 -24.09375 C 25.101562 -24.09375 25 -23.976562 25 -23.75 C 25 -23.53125 25.101562 -23.378906 25.3125 -23.296875 C 26.976562 -23.085938 28.609375 -23.195312 30.203125 -23.625 C 31.796875 -24.050781 33.203125 -24.898438 34.421875 -26.171875 C 35.035156 -24.828125 35.34375 -23.398438 35.34375 -21.890625 C 35.34375 -19.035156 34.472656 -16.769531 32.734375 -15.09375 C 31.003906 -13.425781 28.734375 -12.429688 25.921875 -12.109375 C 25.722656 -12.109375 25.625 -11.984375 25.625 -11.734375 C 25.625 -11.492188 25.722656 -11.375 25.921875 -11.375 C 27.515625 -11.207031 29.0625 -11.328125 30.5625 -11.734375 C 32.070312 -12.140625 33.398438 -13.019531 34.546875 -14.375 C 34.867188 -13.84375 35.101562 -13.25 35.25 -12.59375 C 35.394531 -11.9375 35.46875 -10.957031 35.46875 -9.65625 C 35.46875 -8.71875 35.28125 -7.6875 34.90625 -6.5625 C 34.539062 -5.445312 33.957031 -4.390625 33.15625 -3.390625 C 32.363281 -2.390625 31.367188 -1.570312 30.171875 -0.9375 C 28.972656 -0.3125 27.515625 0 25.796875 0 L 9.71875 0 C 7.925781 0 6.285156 -0.4375 4.796875 -1.3125 C 3.304688 -2.1875 2.132812 -3.359375 1.28125 -4.828125 C 0.425781 -6.296875 0 -7.90625 0 -9.65625 Z M 0 -33.5625 "/></g></g></g><path stroke-linecap="butt" transform="matrix(0.75, 0, 0, 0.75, 203.609156, 141.690387)" fill="none" stroke-linejoin="miter" d="M 38.318003 26.115944 C 40.760711 26.115944 42.969045 26.714903 44.943003 27.907611 C 46.937795 29.10032 48.51592 30.69407 49.682587 32.683653 C 50.864879 34.66282 51.45342 36.845112 51.45342 39.235737 C 51.45342 41.56907 50.885712 43.704487 49.739879 45.641987 C 48.599254 47.569071 47.062795 49.126363 45.125295 50.319071 C 43.198212 51.516988 41.010711 52.110738 38.557586 52.110738 L 38.656545 71.699281 C 38.656545 74.089906 38.052378 76.287823 36.844045 78.308656 C 35.651336 80.308656 34.057586 81.907615 32.068003 83.105532 C 30.088836 84.29824 27.906544 84.897198 25.515919 84.897198 C 23.182585 84.897198 21.031543 84.29824 19.068002 83.105532 C 17.120085 81.907615 15.557585 80.308656 14.390918 78.308656 C 13.224251 76.287823 12.640918 74.089906 12.640918 71.699281 L 12.640918 52.110738 C 10.250293 52.110738 8.073209 51.516988 6.109667 50.319071 C 4.161751 49.126363 2.614876 47.569071 1.474251 45.641987 C 0.333625 43.704487 -0.239291 41.56907 -0.239291 39.235737 C -0.239291 36.845112 0.333625 34.66282 1.474251 32.683653 C 2.614876 30.69407 4.161751 29.10032 6.109667 27.907611 C 8.073209 26.714903 10.250293 26.115944 12.640918 26.115944 Z M 38.318003 26.115944 " stroke="#000000" stroke-width="6.624361" stroke-opacity="1" stroke-miterlimit="4"/><g fill="#ffffff" fill-opacity="1"><g transform="translate(203.609156, 204.690383)"><g><path d="M 28.734375 -43.40625 C 30.566406 -43.40625 32.226562 -42.957031 33.71875 -42.0625 C 35.207031 -41.164062 36.390625 -39.972656 37.265625 -38.484375 C 38.140625 -36.992188 38.578125 -35.351562 38.578125 -33.5625 C 38.578125 -31.8125 38.148438 -30.210938 37.296875 -28.765625 C 36.441406 -27.316406 35.289062 -26.144531 33.84375 -25.25 C 32.394531 -24.351562 30.753906 -23.90625 28.921875 -23.90625 L 28.984375 -9.234375 C 28.984375 -7.441406 28.535156 -5.789062 27.640625 -4.28125 C 26.742188 -2.769531 25.550781 -1.566406 24.0625 -0.671875 C 22.570312 0.222656 20.929688 0.671875 19.140625 0.671875 C 17.390625 0.671875 15.78125 0.222656 14.3125 -0.671875 C 12.84375 -1.566406 11.671875 -2.769531 10.796875 -4.28125 C 9.921875 -5.789062 9.484375 -7.441406 9.484375 -9.234375 L 9.484375 -23.90625 C 7.679688 -23.90625 6.046875 -24.351562 4.578125 -25.25 C 3.117188 -26.144531 1.957031 -27.316406 1.09375 -28.765625 C 0.238281 -30.210938 -0.1875 -31.8125 -0.1875 -33.5625 C -0.1875 -35.351562 0.238281 -36.992188 1.09375 -38.484375 C 1.957031 -39.972656 3.117188 -41.164062 4.578125 -42.0625 C 6.046875 -42.957031 7.679688 -43.40625 9.484375 -43.40625 Z M 28.734375 -43.40625 "/></g></g></g><path stroke-linecap="butt" transform="matrix(0.75, 0, 0, 0.75, 176.451586, 141.690387)" fill="none" stroke-linejoin="miter" d="M 51.772889 38.918029 C 51.772889 41.03782 51.283306 42.954487 50.298931 44.668029 C 49.319764 46.381571 47.877056 47.720113 45.981222 48.688863 C 44.627055 47.933654 43.17393 47.339904 41.621847 46.918029 C 40.069763 46.480529 38.476013 46.199279 36.845805 46.079487 C 36.522888 46.079487 36.324971 46.235737 36.246846 46.537821 C 36.168721 46.829487 36.288513 47.037821 36.606221 47.157613 C 40.252055 47.964904 43.231222 49.433654 45.543722 51.553446 C 47.851014 53.678446 49.491639 56.126363 50.460389 58.902405 C 51.439556 61.657613 51.778097 64.51178 51.476014 67.459697 C 51.184347 70.391989 50.205181 73.110739 48.548931 75.621156 C 46.887472 78.115948 44.564555 80.136781 41.58018 81.688865 C 38.595805 83.230532 34.95518 84.001365 30.653096 84.001365 L 12.798928 84.001365 C 10.465595 84.001365 8.314553 83.324282 6.351011 81.970115 C 4.397886 80.600323 2.824969 78.918031 1.632261 76.912823 C 0.439552 74.897198 -0.159406 72.938864 -0.159406 71.043031 C -0.159406 68.813864 0.246844 66.871155 1.054136 65.209697 C 1.877053 63.553447 3.184344 62.069072 4.976011 60.772197 C 6.554136 61.79303 8.345803 62.57428 10.351011 63.121155 C 12.366637 63.662822 14.32497 63.933655 16.220803 63.933655 C 16.554137 63.933655 16.746845 63.787822 16.798928 63.496155 C 16.851012 63.194072 16.715595 62.985739 16.382262 62.881572 C 15.241637 62.777405 14.101012 62.537822 12.960387 62.162822 C 11.814553 61.777405 10.69997 61.313863 9.611428 60.772197 C 6.960386 59.350322 4.845803 57.527405 3.262469 55.298238 C 1.684344 53.069071 0.663511 50.652404 0.199969 48.053446 C -0.263573 45.438862 -0.185448 42.845112 0.439552 40.266987 C 1.074969 37.683654 2.246844 35.324278 3.960386 33.204487 C 5.673928 31.079486 7.939553 29.365945 10.767678 28.06907 C 13.595803 26.766986 16.965595 26.115944 20.882262 26.115944 L 38.554138 26.115944 C 41.012472 26.115944 43.226014 26.688861 45.20518 27.829486 C 47.194764 28.970111 48.788514 30.511778 49.981222 32.44407 C 51.173931 34.371153 51.772889 36.527403 51.772889 38.918029 Z M 51.772889 38.918029 " stroke="#000000" stroke-width="6.624361" stroke-opacity="1" stroke-miterlimit="4"/><g fill="#ffffff" fill-opacity="1"><g transform="translate(176.451586, 204.690383)"><g><path d="M 38.828125 -33.8125 C 38.828125 -32.21875 38.457031 -30.78125 37.71875 -29.5 C 36.988281 -28.21875 35.910156 -27.207031 34.484375 -26.46875 C 33.460938 -27.039062 32.367188 -27.488281 31.203125 -27.8125 C 30.046875 -28.144531 28.859375 -28.351562 27.640625 -28.4375 C 27.390625 -28.4375 27.234375 -28.320312 27.171875 -28.09375 C 27.109375 -27.863281 27.203125 -27.710938 27.453125 -27.640625 C 30.179688 -27.023438 32.410156 -25.921875 34.140625 -24.328125 C 35.878906 -22.742188 37.113281 -20.910156 37.84375 -18.828125 C 38.582031 -16.753906 38.835938 -14.613281 38.609375 -12.40625 C 38.390625 -10.207031 37.65625 -8.171875 36.40625 -6.296875 C 35.164062 -4.421875 33.421875 -2.898438 31.171875 -1.734375 C 28.929688 -0.578125 26.203125 0 22.984375 0 L 9.59375 0 C 7.84375 0 6.234375 -0.507812 4.765625 -1.53125 C 3.296875 -2.550781 2.113281 -3.8125 1.21875 -5.3125 C 0.320312 -6.820312 -0.125 -8.289062 -0.125 -9.71875 C -0.125 -11.394531 0.179688 -12.851562 0.796875 -14.09375 C 1.410156 -15.332031 2.390625 -16.441406 3.734375 -17.421875 C 4.910156 -16.648438 6.253906 -16.0625 7.765625 -15.65625 C 9.273438 -15.25 10.742188 -15.046875 12.171875 -15.046875 C 12.410156 -15.046875 12.550781 -15.15625 12.59375 -15.375 C 12.632812 -15.601562 12.535156 -15.753906 12.296875 -15.828125 C 11.429688 -15.910156 10.570312 -16.09375 9.71875 -16.375 C 8.863281 -16.664062 8.03125 -17.015625 7.21875 -17.421875 C 5.21875 -18.484375 3.625 -19.847656 2.4375 -21.515625 C 1.257812 -23.191406 0.5 -25.003906 0.15625 -26.953125 C -0.1875 -28.910156 -0.125 -30.859375 0.34375 -32.796875 C 0.8125 -34.734375 1.6875 -36.492188 2.96875 -38.078125 C 4.25 -39.671875 5.945312 -40.957031 8.0625 -41.9375 C 10.1875 -42.914062 12.71875 -43.40625 15.65625 -43.40625 L 28.921875 -43.40625 C 30.753906 -43.40625 32.414062 -42.976562 33.90625 -42.125 C 35.394531 -41.269531 36.585938 -40.117188 37.484375 -38.671875 C 38.378906 -37.222656 38.828125 -35.601562 38.828125 -33.8125 Z M 38.828125 -33.8125 "/></g></g></g><path stroke-linecap="butt" transform="matrix(0.75, 0, 0, 0.75, 126.305022, 140.549609)" fill="none" stroke-linejoin="miter" d="M 52.020391 66.225525 L 37.671432 80.256776 C 36.421432 81.506776 34.994348 82.439068 33.390181 83.064068 C 31.786015 83.689068 30.166223 84.001568 28.530806 84.001568 C 26.848514 84.001568 25.202681 83.689068 23.598514 83.064068 C 22.004764 82.439068 20.577681 81.506776 19.317264 80.256776 C 16.822472 77.642193 15.572472 74.652609 15.572472 71.282817 C 15.572472 67.855734 16.822472 64.840109 19.317264 62.225525 L 50.546433 30.595315 C 51.796433 29.136981 53.275599 28.027606 54.983933 27.272398 C 56.697475 26.501565 58.483933 26.116148 60.3381 26.116148 C 61.426642 26.116148 62.530808 26.267189 63.645392 26.574481 C 64.759975 26.866148 65.801642 27.308856 66.770392 27.907815 C 68.786017 28.944273 70.379767 30.45469 71.546434 32.444273 C 72.713101 34.42344 73.296434 36.631774 73.296434 39.074482 L 73.296434 71.199484 C 73.296434 73.538026 72.676642 75.683859 71.426642 77.65261 C 70.181851 79.600526 68.572475 81.147401 66.608934 82.288027 C 64.661017 83.428652 62.598517 84.001568 60.421433 84.001568 C 57.103725 84.001568 54.353724 83.09011 52.181849 81.272401 C 50.004766 79.454693 48.562057 77.18386 47.858932 74.465109 L 52.838099 66.881775 C 52.942266 66.548442 52.884974 66.293234 52.655808 66.105734 C 52.442266 65.918234 52.233933 65.9599 52.020391 66.225525 Z M 52.020391 66.225525 " stroke="#000000" stroke-width="6.624361" stroke-opacity="1" stroke-miterlimit="4"/><g fill="#ffffff" fill-opacity="1"><g transform="translate(138.59799, 203.549605)"><g><path d="M 26.71875 -13.328125 L 15.953125 -2.8125 C 15.015625 -1.875 13.941406 -1.171875 12.734375 -0.703125 C 11.535156 -0.234375 10.328125 0 9.109375 0 C 7.847656 0 6.613281 -0.234375 5.40625 -0.703125 C 4.207031 -1.171875 3.140625 -1.875 2.203125 -2.8125 C 0.328125 -4.769531 -0.609375 -7.007812 -0.609375 -9.53125 C -0.609375 -12.101562 0.328125 -14.367188 2.203125 -16.328125 L 25.625 -40.046875 C 26.5625 -41.148438 27.671875 -41.984375 28.953125 -42.546875 C 30.234375 -43.117188 31.566406 -43.40625 32.953125 -43.40625 C 33.765625 -43.40625 34.585938 -43.289062 35.421875 -43.0625 C 36.265625 -42.84375 37.050781 -42.507812 37.78125 -42.0625 C 39.289062 -41.289062 40.484375 -40.160156 41.359375 -38.671875 C 42.234375 -37.179688 42.671875 -35.519531 42.671875 -33.6875 L 42.671875 -9.59375 C 42.671875 -7.84375 42.203125 -6.234375 41.265625 -4.765625 C 40.328125 -3.296875 39.125 -2.132812 37.65625 -1.28125 C 36.195312 -0.425781 34.648438 0 33.015625 0 C 30.523438 0 28.460938 -0.679688 26.828125 -2.046875 C 25.203125 -3.410156 24.125 -5.113281 23.59375 -7.15625 L 27.328125 -12.84375 C 27.410156 -13.082031 27.367188 -13.273438 27.203125 -13.421875 C 27.046875 -13.566406 26.882812 -13.535156 26.71875 -13.328125 Z M 26.71875 -13.328125 "/></g></g></g><path stroke-linecap="butt" transform="matrix(0.75, 0, 0, 0.75, 120.891743, 140.549609)" fill="none" stroke-linejoin="miter" d="M 12.878719 84.001568 C 10.488093 84.001568 8.31101 83.40261 6.347468 82.209902 C 4.399551 81.011985 2.852676 79.428651 1.712051 77.449485 C 0.571426 75.459901 -0.00149062 73.298443 -0.00149062 70.959901 L -0.00149062 38.918232 C -0.00149062 36.527607 0.571426 34.371357 1.712051 32.444273 C 2.852676 30.506773 4.399551 28.970315 6.347468 27.82969 C 8.31101 26.689065 10.488093 26.116148 12.878719 26.116148 C 15.383927 26.116148 17.618302 26.689065 19.566219 27.82969 C 21.519344 28.970315 23.076636 30.506773 24.243303 32.444273 C 25.425594 34.371357 26.014136 36.527607 26.014136 38.918232 L 26.014136 70.959901 C 26.014136 73.298443 25.425594 75.459901 24.243303 77.449485 C 23.076636 79.428651 21.519344 81.011985 19.566219 82.209902 C 17.618302 83.40261 15.383927 84.001568 12.878719 84.001568 Z M 12.878719 84.001568 " stroke="#000000" stroke-width="6.624361" stroke-opacity="1" stroke-miterlimit="4"/><g fill="#ffffff" fill-opacity="1"><g transform="translate(120.891743, 203.549605)"><g><path d="M 9.65625 0 C 7.863281 0 6.234375 -0.445312 4.765625 -1.34375 C 3.296875 -2.238281 2.132812 -3.429688 1.28125 -4.921875 C 0.425781 -6.410156 0 -8.03125 0 -9.78125 L 0 -33.8125 C 0 -35.601562 0.425781 -37.222656 1.28125 -38.671875 C 2.132812 -40.117188 3.296875 -41.269531 4.765625 -42.125 C 6.234375 -42.976562 7.863281 -43.40625 9.65625 -43.40625 C 11.53125 -43.40625 13.203125 -42.976562 14.671875 -42.125 C 16.140625 -41.269531 17.3125 -40.117188 18.1875 -38.671875 C 19.0625 -37.222656 19.5 -35.601562 19.5 -33.8125 L 19.5 -9.78125 C 19.5 -8.03125 19.0625 -6.410156 18.1875 -4.921875 C 17.3125 -3.429688 16.140625 -2.238281 14.671875 -1.34375 C 13.203125 -0.445312 11.53125 0 9.65625 0 Z M 9.65625 0 "/></g></g></g><path stroke-linecap="butt" transform="matrix(0.75, 0, 0, 0.75, 86.331781, 142.000553)" fill="none" stroke-linejoin="miter" d="M 64.463879 63.129475 L 51.14617 76.447184 C 49.963878 77.681559 48.635753 78.582601 47.161795 79.150309 C 45.698253 79.718018 44.219086 79.999268 42.719086 79.999268 C 40.036794 79.999268 37.531586 79.186768 35.198252 77.561768 C 32.880544 75.936768 31.364919 73.707601 30.646169 70.874267 L 35.047211 63.827392 C 35.260752 63.561767 35.250336 63.327392 35.010752 63.129475 C 34.781586 62.92635 34.568044 62.92635 34.370127 63.129475 L 21.276376 76.275309 C 20.088876 77.525309 18.73471 78.457601 17.213876 79.072184 C 15.703459 79.691976 14.146168 79.999268 12.547209 79.999268 C 10.265959 79.999268 8.167001 79.421143 6.255542 78.259684 C 4.3545 77.103434 2.833667 75.572184 1.69825 73.671142 C 0.568042 71.754476 0.000333359 69.660725 0.000333359 67.379475 C 0.000333359 64.030517 1.265958 61.087808 3.797209 58.556558 L 33.896169 28.681556 C 35.130544 27.447181 36.495127 26.535723 37.995128 25.941973 C 39.495128 25.353431 41.042003 25.056556 42.646169 25.056556 C 44.963878 25.056556 47.057628 25.598223 48.937837 26.681556 C 50.823253 27.764889 52.312837 29.238848 53.39617 31.103431 C 54.479504 32.95239 55.02117 35.040932 55.02117 37.35864 L 63.312838 29.233639 C 64.599296 27.947181 66.026379 26.931556 67.604504 26.191973 C 69.177421 25.431556 70.864921 25.056556 72.667005 25.056556 C 74.984713 25.056556 77.083672 25.624264 78.958672 26.754473 C 80.849297 27.889889 82.344089 29.400306 83.453464 31.290931 C 84.578464 33.165931 85.135756 35.212807 85.135756 37.431557 L 85.135756 67.55135 C 85.135756 69.816975 84.578464 71.905517 83.453464 73.822184 C 82.344089 75.723226 80.849297 77.228434 78.958672 78.337809 C 77.083672 79.447184 74.984713 79.999268 72.667005 79.999268 C 69.833671 79.999268 67.276379 79.124268 64.995129 77.374268 C 62.729504 75.608643 61.312837 73.384684 60.745129 70.702392 L 65.318046 63.827392 C 65.568046 63.462808 65.583671 63.165933 65.354504 62.936767 C 65.125338 62.697183 64.833671 62.764892 64.463879 63.129475 Z M 64.463879 63.129475 " stroke="#000000" stroke-width="6.28836" stroke-opacity="1" stroke-miterlimit="4"/><g fill="#ffffff" fill-opacity="1"><g transform="translate(86.331781, 202.000549)"><g><path d="M 48.359375 -12.65625 L 38.375 -2.671875 C 37.476562 -1.742188 36.476562 -1.066406 35.375 -0.640625 C 34.269531 -0.210938 33.160156 0 32.046875 0 C 30.023438 0 28.144531 -0.609375 26.40625 -1.828125 C 24.664062 -3.046875 23.523438 -4.71875 22.984375 -6.84375 L 26.296875 -12.125 C 26.453125 -12.320312 26.441406 -12.5 26.265625 -12.65625 C 26.085938 -12.8125 25.921875 -12.8125 25.765625 -12.65625 L 15.96875 -2.78125 C 15.070312 -1.851562 14.050781 -1.15625 12.90625 -0.6875 C 11.769531 -0.226562 10.601562 0 9.40625 0 C 7.695312 0 6.125 -0.429688 4.6875 -1.296875 C 3.257812 -2.171875 2.117188 -3.320312 1.265625 -4.75 C 0.421875 -6.1875 0 -7.757812 0 -9.46875 C 0 -11.976562 0.945312 -14.179688 2.84375 -16.078125 L 25.421875 -38.484375 C 26.347656 -39.410156 27.375 -40.097656 28.5 -40.546875 C 29.625 -40.992188 30.785156 -41.21875 31.984375 -41.21875 C 33.722656 -41.21875 35.296875 -40.8125 36.703125 -40 C 38.117188 -39.1875 39.234375 -38.082031 40.046875 -36.6875 C 40.859375 -35.289062 41.265625 -33.722656 41.265625 -31.984375 L 47.484375 -38.078125 C 48.453125 -39.046875 49.523438 -39.8125 50.703125 -40.375 C 51.878906 -40.9375 53.144531 -41.21875 54.5 -41.21875 C 56.25 -41.21875 57.828125 -40.789062 59.234375 -39.9375 C 60.648438 -39.082031 61.769531 -37.945312 62.59375 -36.53125 C 63.425781 -35.125 63.84375 -33.585938 63.84375 -31.921875 L 63.84375 -9.34375 C 63.84375 -7.644531 63.425781 -6.078125 62.59375 -4.640625 C 61.769531 -3.210938 60.648438 -2.082031 59.234375 -1.25 C 57.828125 -0.414062 56.25 0 54.5 0 C 52.375 0 50.457031 -0.65625 48.75 -1.96875 C 47.050781 -3.289062 45.988281 -4.957031 45.5625 -6.96875 L 48.984375 -12.125 C 49.179688 -12.394531 49.191406 -12.617188 49.015625 -12.796875 C 48.847656 -12.972656 48.628906 -12.925781 48.359375 -12.65625 Z M 48.359375 -12.65625 "/></g></g></g><g fill="#ffffff" fill-opacity="1"><g transform="translate(119.552656, 220.110367)"><g><path d="M 1 0.046875 C 0.863281 0.046875 0.742188 0 0.640625 -0.09375 C 0.546875 -0.195312 0.5 -0.320312 0.5 -0.46875 C 0.5 -0.613281 0.546875 -0.734375 0.640625 -0.828125 C 0.742188 -0.929688 0.863281 -0.984375 1 -0.984375 C 1.144531 -0.984375 1.265625 -0.929688 1.359375 -0.828125 C 1.460938 -0.734375 1.515625 -0.613281 1.515625 -0.46875 C 1.515625 -0.320312 1.460938 -0.195312 1.359375 -0.09375 C 1.265625 0 1.144531 0.046875 1 0.046875 Z M 1 0.046875 "/></g></g></g><g fill="#ffffff" fill-opacity="1"><g transform="translate(129.166276, 220.110367)"><g><path d="M 1.078125 -6.65625 L 3.796875 -6.65625 C 4.492188 -6.65625 5.109375 -6.507812 5.640625 -6.21875 C 6.179688 -5.9375 6.601562 -5.546875 6.90625 -5.046875 C 7.207031 -4.546875 7.359375 -3.972656 7.359375 -3.328125 C 7.359375 -2.679688 7.207031 -2.101562 6.90625 -1.59375 C 6.601562 -1.09375 6.179688 -0.703125 5.640625 -0.421875 C 5.109375 -0.140625 4.492188 0 3.796875 0 L 1.078125 0 Z M 3.75 -0.609375 C 4.332031 -0.609375 4.84375 -0.722656 5.28125 -0.953125 C 5.71875 -1.179688 6.054688 -1.5 6.296875 -1.90625 C 6.535156 -2.320312 6.65625 -2.796875 6.65625 -3.328125 C 6.65625 -3.859375 6.535156 -4.328125 6.296875 -4.734375 C 6.054688 -5.140625 5.71875 -5.457031 5.28125 -5.6875 C 4.84375 -5.925781 4.332031 -6.046875 3.75 -6.046875 L 1.78125 -6.046875 L 1.78125 -0.609375 Z M 3.75 -0.609375 "/></g></g></g><g fill="#ffffff" fill-opacity="1"><g transform="translate(144.608075, 220.110367)"><g><path d="M 5.78125 -0.609375 L 5.78125 0 L 1.078125 0 L 1.078125 -6.65625 L 5.640625 -6.65625 L 5.640625 -6.046875 L 1.78125 -6.046875 L 1.78125 -3.671875 L 5.21875 -3.671875 L 5.21875 -3.078125 L 1.78125 -3.078125 L 1.78125 -0.609375 Z M 5.78125 -0.609375 "/></g></g></g><g fill="#ffffff" fill-opacity="1"><g transform="translate(158.559612, 220.110367)"><g><path d="M 6.609375 -6.65625 L 3.671875 0 L 2.96875 0 L 0.03125 -6.65625 L 0.78125 -6.65625 L 3.328125 -0.875 L 5.90625 -6.65625 Z M 6.609375 -6.65625 "/></g></g></g></svg>